o RoundedCube
v 0.4366025403784438 -0.4366025403784438 -0.4366025403784438
v 0.45533703247651747 -0.3675561720794196 -0.45533703247651747
v 0.4560660171779821 -0.25 -0.4560660171779821
v 0.4560660171779821 -0.125 -0.4560660171779821
v 0.4560660171779821 0.0 -0.4560660171779821
v 0.4560660171779821 0.125 -0.4560660171779821
v 0.4560660171779821 0.25 -0.4560660171779821
v 0.45533703247651747 0.3675561720794196 -0.45533703247651747
v 0.4366025403784438 0.4366025403784438 -0.4366025403784438
v 0.45533703247651747 -0.45533703247651747 -0.3675561720794196
v 0.49599927901768626 -0.3743332131696144 -0.3743332131696144
v 0.4979590885748215 -0.25 -0.3746598480958036
v 0.4979590885748215 -0.125 -0.3746598480958036
v 0.4979590885748215 0.0 -0.3746598480958036
v 0.4979590885748215 0.125 -0.3746598480958036
v 0.4979590885748215 0.25 -0.3746598480958036
v 0.49599927901768626 0.3743332131696144 -0.3743332131696144
v 0.45533703247651747 0.45533703247651747 -0.3675561720794196
v 0.4560660171779821 -0.4560660171779821 -0.25
v 0.4979590885748215 -0.3746598480958036 -0.25
v 0.5 -0.25 -0.25
v 0.5 -0.125 -0.25
v 0.5 0.0 -0.25
v 0.5 0.125 -0.25
v 0.5 0.25 -0.25
v 0.4979590885748215 0.3746598480958036 -0.25
v 0.4560660171779821 0.4560660171779821 -0.25
v 0.4560660171779821 -0.4560660171779821 -0.125
v 0.4979590885748215 -0.3746598480958036 -0.125
v 0.5 -0.25 -0.125
v 0.5 -0.125 -0.125
v 0.5 0.0 -0.125
v 0.5 0.125 -0.125
v 0.5 0.25 -0.125
v 0.4979590885748215 0.3746598480958036 -0.125
v 0.4560660171779821 0.4560660171779821 -0.125
v 0.4560660171779821 -0.4560660171779821 0.0
v 0.4979590885748215 -0.3746598480958036 0.0
v 0.5 -0.25 0.0
v 0.5 -0.125 0.0
v 0.5 0.0 0.0
v 0.5 0.125 0.0
v 0.5 0.25 0.0
v 0.4979590885748215 0.3746598480958036 0.0
v 0.4560660171779821 0.4560660171779821 0.0
v 0.4560660171779821 -0.4560660171779821 0.125
v 0.4979590885748215 -0.3746598480958036 0.125
v 0.5 -0.25 0.125
v 0.5 -0.125 0.125
v 0.5 0.0 0.125
v 0.5 0.125 0.125
v 0.5 0.25 0.125
v 0.4979590885748215 0.3746598480958036 0.125
v 0.4560660171779821 0.4560660171779821 0.125
v 0.4560660171779821 -0.4560660171779821 0.25
v 0.4979590885748215 -0.3746598480958036 0.25
v 0.5 -0.25 0.25
v 0.5 -0.125 0.25
v 0.5 0.0 0.25
v 0.5 0.125 0.25
v 0.5 0.25 0.25
v 0.4979590885748215 0.3746598480958036 0.25
v 0.4560660171779821 0.4560660171779821 0.25
v 0.45533703247651747 -0.45533703247651747 0.3675561720794196
v 0.49599927901768626 -0.3743332131696144 0.3743332131696144
v 0.4979590885748215 -0.25 0.3746598480958036
v 0.4979590885748215 -0.125 0.3746598480958036
v 0.4979590885748215 0.0 0.3746598480958036
v 0.4979590885748215 0.125 0.3746598480958036
v 0.4979590885748215 0.25 0.3746598480958036
v 0.49599927901768626 0.3743332131696144 0.3743332131696144
v 0.45533703247651747 0.45533703247651747 0.3675561720794196
v 0.4366025403784438 -0.4366025403784438 0.4366025403784438
v 0.45533703247651747 -0.3675561720794196 0.45533703247651747
v 0.4560660171779821 -0.25 0.4560660171779821
v 0.4560660171779821 -0.125 0.4560660171779821
v 0.4560660171779821 0.0 0.4560660171779821
v 0.4560660171779821 0.125 0.4560660171779821
v 0.4560660171779821 0.25 0.4560660171779821
v 0.45533703247651747 0.3675561720794196 0.45533703247651747
v 0.4366025403784438 0.4366025403784438 0.4366025403784438
v -0.4366025403784438 -0.4366025403784438 0.4366025403784438
v -0.45533703247651747 -0.3675561720794196 0.45533703247651747
v -0.4560660171779821 -0.25 0.4560660171779821
v -0.4560660171779821 -0.125 0.4560660171779821
v -0.4560660171779821 0.0 0.4560660171779821
v -0.4560660171779821 0.125 0.4560660171779821
v -0.4560660171779821 0.25 0.4560660171779821
v -0.45533703247651747 0.3675561720794196 0.45533703247651747
v -0.4366025403784438 0.4366025403784438 0.4366025403784438
v -0.45533703247651747 -0.45533703247651747 0.3675561720794196
v -0.49599927901768626 -0.3743332131696144 0.3743332131696144
v -0.4979590885748215 -0.25 0.3746598480958036
v -0.4979590885748215 -0.125 0.3746598480958036
v -0.4979590885748215 0.0 0.3746598480958036
v -0.4979590885748215 0.125 0.3746598480958036
v -0.4979590885748215 0.25 0.3746598480958036
v -0.49599927901768626 0.3743332131696144 0.3743332131696144
v -0.45533703247651747 0.45533703247651747 0.3675561720794196
v -0.4560660171779821 -0.4560660171779821 0.25
v -0.4979590885748215 -0.3746598480958036 0.25
v -0.5 -0.25 0.25
v -0.5 -0.125 0.25
v -0.5 0.0 0.25
v -0.5 0.125 0.25
v -0.5 0.25 0.25
v -0.4979590885748215 0.3746598480958036 0.25
v -0.4560660171779821 0.4560660171779821 0.25
v -0.4560660171779821 -0.4560660171779821 0.125
v -0.4979590885748215 -0.3746598480958036 0.125
v -0.5 -0.25 0.125
v -0.5 -0.125 0.125
v -0.5 0.0 0.125
v -0.5 0.125 0.125
v -0.5 0.25 0.125
v -0.4979590885748215 0.3746598480958036 0.125
v -0.4560660171779821 0.4560660171779821 0.125
v -0.4560660171779821 -0.4560660171779821 0.0
v -0.4979590885748215 -0.3746598480958036 0.0
v -0.5 -0.25 0.0
v -0.5 -0.125 0.0
v -0.5 0.0 0.0
v -0.5 0.125 0.0
v -0.5 0.25 0.0
v -0.4979590885748215 0.3746598480958036 0.0
v -0.4560660171779821 0.4560660171779821 0.0
v -0.4560660171779821 -0.4560660171779821 -0.125
v -0.4979590885748215 -0.3746598480958036 -0.125
v -0.5 -0.25 -0.125
v -0.5 -0.125 -0.125
v -0.5 0.0 -0.125
v -0.5 0.125 -0.125
v -0.5 0.25 -0.125
v -0.4979590885748215 0.3746598480958036 -0.125
v -0.4560660171779821 0.4560660171779821 -0.125
v -0.4560660171779821 -0.4560660171779821 -0.25
v -0.4979590885748215 -0.3746598480958036 -0.25
v -0.5 -0.25 -0.25
v -0.5 -0.125 -0.25
v -0.5 0.0 -0.25
v -0.5 0.125 -0.25
v -0.5 0.25 -0.25
v -0.4979590885748215 0.3746598480958036 -0.25
v -0.4560660171779821 0.4560660171779821 -0.25
v -0.45533703247651747 -0.45533703247651747 -0.3675561720794196
v -0.49599927901768626 -0.3743332131696144 -0.3743332131696144
v -0.4979590885748215 -0.25 -0.3746598480958036
v -0.4979590885748215 -0.125 -0.3746598480958036
v -0.4979590885748215 0.0 -0.3746598480958036
v -0.4979590885748215 0.125 -0.3746598480958036
v -0.4979590885748215 0.25 -0.3746598480958036
v -0.49599927901768626 0.3743332131696144 -0.3743332131696144
v -0.45533703247651747 0.45533703247651747 -0.3675561720794196
v -0.4366025403784438 -0.4366025403784438 -0.4366025403784438
v -0.45533703247651747 -0.3675561720794196 -0.45533703247651747
v -0.4560660171779821 -0.25 -0.4560660171779821
v -0.4560660171779821 -0.125 -0.4560660171779821
v -0.4560660171779821 0.0 -0.4560660171779821
v -0.4560660171779821 0.125 -0.4560660171779821
v -0.4560660171779821 0.25 -0.4560660171779821
v -0.45533703247651747 0.3675561720794196 -0.45533703247651747
v -0.4366025403784438 0.4366025403784438 -0.4366025403784438
v -0.4366025403784438 0.4366025403784438 0.4366025403784438
v -0.3675561720794196 0.45533703247651747 0.45533703247651747
v -0.25 0.4560660171779821 0.4560660171779821
v -0.125 0.4560660171779821 0.4560660171779821
v 0.0 0.4560660171779821 0.4560660171779821
v 0.125 0.4560660171779821 0.4560660171779821
v 0.25 0.4560660171779821 0.4560660171779821
v 0.3675561720794196 0.45533703247651747 0.45533703247651747
v 0.4366025403784438 0.4366025403784438 0.4366025403784438
v -0.45533703247651747 0.45533703247651747 0.3675561720794196
v -0.3743332131696144 0.49599927901768626 0.3743332131696144
v -0.25 0.4979590885748215 0.3746598480958036
v -0.125 0.4979590885748215 0.3746598480958036
v 0.0 0.4979590885748215 0.3746598480958036
v 0.125 0.4979590885748215 0.3746598480958036
v 0.25 0.4979590885748215 0.3746598480958036
v 0.3743332131696144 0.49599927901768626 0.3743332131696144
v 0.45533703247651747 0.45533703247651747 0.3675561720794196
v -0.4560660171779821 0.4560660171779821 0.25
v -0.3746598480958036 0.4979590885748215 0.25
v -0.25 0.5 0.25
v -0.125 0.5 0.25
v 0.0 0.5 0.25
v 0.125 0.5 0.25
v 0.25 0.5 0.25
v 0.3746598480958036 0.4979590885748215 0.25
v 0.4560660171779821 0.4560660171779821 0.25
v -0.4560660171779821 0.4560660171779821 0.125
v -0.3746598480958036 0.4979590885748215 0.125
v -0.25 0.5 0.125
v -0.125 0.5 0.125
v 0.0 0.5 0.125
v 0.125 0.5 0.125
v 0.25 0.5 0.125
v 0.3746598480958036 0.4979590885748215 0.125
v 0.4560660171779821 0.4560660171779821 0.125
v -0.4560660171779821 0.4560660171779821 0.0
v -0.3746598480958036 0.4979590885748215 0.0
v -0.25 0.5 0.0
v -0.125 0.5 0.0
v 0.0 0.5 0.0
v 0.125 0.5 0.0
v 0.25 0.5 0.0
v 0.3746598480958036 0.4979590885748215 0.0
v 0.4560660171779821 0.4560660171779821 0.0
v -0.4560660171779821 0.4560660171779821 -0.125
v -0.3746598480958036 0.4979590885748215 -0.125
v -0.25 0.5 -0.125
v -0.125 0.5 -0.125
v 0.0 0.5 -0.125
v 0.125 0.5 -0.125
v 0.25 0.5 -0.125
v 0.3746598480958036 0.4979590885748215 -0.125
v 0.4560660171779821 0.4560660171779821 -0.125
v -0.4560660171779821 0.4560660171779821 -0.25
v -0.3746598480958036 0.4979590885748215 -0.25
v -0.25 0.5 -0.25
v -0.125 0.5 -0.25
v 0.0 0.5 -0.25
v 0.125 0.5 -0.25
v 0.25 0.5 -0.25
v 0.3746598480958036 0.4979590885748215 -0.25
v 0.4560660171779821 0.4560660171779821 -0.25
v -0.45533703247651747 0.45533703247651747 -0.3675561720794196
v -0.3743332131696144 0.49599927901768626 -0.3743332131696144
v -0.25 0.4979590885748215 -0.3746598480958036
v -0.125 0.4979590885748215 -0.3746598480958036
v 0.0 0.4979590885748215 -0.3746598480958036
v 0.125 0.4979590885748215 -0.3746598480958036
v 0.25 0.4979590885748215 -0.3746598480958036
v 0.3743332131696144 0.49599927901768626 -0.3743332131696144
v 0.45533703247651747 0.45533703247651747 -0.3675561720794196
v -0.4366025403784438 0.4366025403784438 -0.4366025403784438
v -0.3675561720794196 0.45533703247651747 -0.45533703247651747
v -0.25 0.4560660171779821 -0.4560660171779821
v -0.125 0.4560660171779821 -0.4560660171779821
v 0.0 0.4560660171779821 -0.4560660171779821
v 0.125 0.4560660171779821 -0.4560660171779821
v 0.25 0.4560660171779821 -0.4560660171779821
v 0.3675561720794196 0.45533703247651747 -0.45533703247651747
v 0.4366025403784438 0.4366025403784438 -0.4366025403784438
v -0.4366025403784438 -0.4366025403784438 -0.4366025403784438
v -0.3675561720794196 -0.45533703247651747 -0.45533703247651747
v -0.25 -0.4560660171779821 -0.4560660171779821
v -0.125 -0.4560660171779821 -0.4560660171779821
v 0.0 -0.4560660171779821 -0.4560660171779821
v 0.125 -0.4560660171779821 -0.4560660171779821
v 0.25 -0.4560660171779821 -0.4560660171779821
v 0.3675561720794196 -0.45533703247651747 -0.45533703247651747
v 0.4366025403784438 -0.4366025403784438 -0.4366025403784438
v -0.45533703247651747 -0.45533703247651747 -0.3675561720794196
v -0.3743332131696144 -0.49599927901768626 -0.3743332131696144
v -0.25 -0.4979590885748215 -0.3746598480958036
v -0.125 -0.4979590885748215 -0.3746598480958036
v 0.0 -0.4979590885748215 -0.3746598480958036
v 0.125 -0.4979590885748215 -0.3746598480958036
v 0.25 -0.4979590885748215 -0.3746598480958036
v 0.3743332131696144 -0.49599927901768626 -0.3743332131696144
v 0.45533703247651747 -0.45533703247651747 -0.3675561720794196
v -0.4560660171779821 -0.4560660171779821 -0.25
v -0.3746598480958036 -0.4979590885748215 -0.25
v -0.25 -0.5 -0.25
v -0.125 -0.5 -0.25
v 0.0 -0.5 -0.25
v 0.125 -0.5 -0.25
v 0.25 -0.5 -0.25
v 0.3746598480958036 -0.4979590885748215 -0.25
v 0.4560660171779821 -0.4560660171779821 -0.25
v -0.4560660171779821 -0.4560660171779821 -0.125
v -0.3746598480958036 -0.4979590885748215 -0.125
v -0.25 -0.5 -0.125
v -0.125 -0.5 -0.125
v 0.0 -0.5 -0.125
v 0.125 -0.5 -0.125
v 0.25 -0.5 -0.125
v 0.3746598480958036 -0.4979590885748215 -0.125
v 0.4560660171779821 -0.4560660171779821 -0.125
v -0.4560660171779821 -0.4560660171779821 0.0
v -0.3746598480958036 -0.4979590885748215 0.0
v -0.25 -0.5 0.0
v -0.125 -0.5 0.0
v 0.0 -0.5 0.0
v 0.125 -0.5 0.0
v 0.25 -0.5 0.0
v 0.3746598480958036 -0.4979590885748215 0.0
v 0.4560660171779821 -0.4560660171779821 0.0
v -0.4560660171779821 -0.4560660171779821 0.125
v -0.3746598480958036 -0.4979590885748215 0.125
v -0.25 -0.5 0.125
v -0.125 -0.5 0.125
v 0.0 -0.5 0.125
v 0.125 -0.5 0.125
v 0.25 -0.5 0.125
v 0.3746598480958036 -0.4979590885748215 0.125
v 0.4560660171779821 -0.4560660171779821 0.125
v -0.4560660171779821 -0.4560660171779821 0.25
v -0.3746598480958036 -0.4979590885748215 0.25
v -0.25 -0.5 0.25
v -0.125 -0.5 0.25
v 0.0 -0.5 0.25
v 0.125 -0.5 0.25
v 0.25 -0.5 0.25
v 0.3746598480958036 -0.4979590885748215 0.25
v 0.4560660171779821 -0.4560660171779821 0.25
v -0.45533703247651747 -0.45533703247651747 0.3675561720794196
v -0.3743332131696144 -0.49599927901768626 0.3743332131696144
v -0.25 -0.4979590885748215 0.3746598480958036
v -0.125 -0.4979590885748215 0.3746598480958036
v 0.0 -0.4979590885748215 0.3746598480958036
v 0.125 -0.4979590885748215 0.3746598480958036
v 0.25 -0.4979590885748215 0.3746598480958036
v 0.3743332131696144 -0.49599927901768626 0.3743332131696144
v 0.45533703247651747 -0.45533703247651747 0.3675561720794196
v -0.4366025403784438 -0.4366025403784438 0.4366025403784438
v -0.3675561720794196 -0.45533703247651747 0.45533703247651747
v -0.25 -0.4560660171779821 0.4560660171779821
v -0.125 -0.4560660171779821 0.4560660171779821
v 0.0 -0.4560660171779821 0.4560660171779821
v 0.125 -0.4560660171779821 0.4560660171779821
v 0.25 -0.4560660171779821 0.4560660171779821
v 0.3675561720794196 -0.45533703247651747 0.45533703247651747
v 0.4366025403784438 -0.4366025403784438 0.4366025403784438
v 0.4366025403784438 -0.4366025403784438 0.4366025403784438
v 0.45533703247651747 -0.3675561720794196 0.45533703247651747
v 0.4560660171779821 -0.25 0.4560660171779821
v 0.4560660171779821 -0.125 0.4560660171779821
v 0.4560660171779821 0.0 0.4560660171779821
v 0.4560660171779821 0.125 0.4560660171779821
v 0.4560660171779821 0.25 0.4560660171779821
v 0.45533703247651747 0.3675561720794196 0.45533703247651747
v 0.4366025403784438 0.4366025403784438 0.4366025403784438
v 0.3675561720794196 -0.45533703247651747 0.45533703247651747
v 0.3743332131696144 -0.3743332131696144 0.49599927901768626
v 0.3746598480958036 -0.25 0.4979590885748215
v 0.3746598480958036 -0.125 0.4979590885748215
v 0.3746598480958036 0.0 0.4979590885748215
v 0.3746598480958036 0.125 0.4979590885748215
v 0.3746598480958036 0.25 0.4979590885748215
v 0.3743332131696144 0.3743332131696144 0.49599927901768626
v 0.3675561720794196 0.45533703247651747 0.45533703247651747
v 0.25 -0.4560660171779821 0.4560660171779821
v 0.25 -0.3746598480958036 0.4979590885748215
v 0.25 -0.25 0.5
v 0.25 -0.125 0.5
v 0.25 0.0 0.5
v 0.25 0.125 0.5
v 0.25 0.25 0.5
v 0.25 0.3746598480958036 0.4979590885748215
v 0.25 0.4560660171779821 0.4560660171779821
v 0.125 -0.4560660171779821 0.4560660171779821
v 0.125 -0.3746598480958036 0.4979590885748215
v 0.125 -0.25 0.5
v 0.125 -0.125 0.5
v 0.125 0.0 0.5
v 0.125 0.125 0.5
v 0.125 0.25 0.5
v 0.125 0.3746598480958036 0.4979590885748215
v 0.125 0.4560660171779821 0.4560660171779821
v 0.0 -0.4560660171779821 0.4560660171779821
v 0.0 -0.3746598480958036 0.4979590885748215
v 0.0 -0.25 0.5
v 0.0 -0.125 0.5
v 0.0 0.0 0.5
v 0.0 0.125 0.5
v 0.0 0.25 0.5
v 0.0 0.3746598480958036 0.4979590885748215
v 0.0 0.4560660171779821 0.4560660171779821
v -0.125 -0.4560660171779821 0.4560660171779821
v -0.125 -0.3746598480958036 0.4979590885748215
v -0.125 -0.25 0.5
v -0.125 -0.125 0.5
v -0.125 0.0 0.5
v -0.125 0.125 0.5
v -0.125 0.25 0.5
v -0.125 0.3746598480958036 0.4979590885748215
v -0.125 0.4560660171779821 0.4560660171779821
v -0.25 -0.4560660171779821 0.4560660171779821
v -0.25 -0.3746598480958036 0.4979590885748215
v -0.25 -0.25 0.5
v -0.25 -0.125 0.5
v -0.25 0.0 0.5
v -0.25 0.125 0.5
v -0.25 0.25 0.5
v -0.25 0.3746598480958036 0.4979590885748215
v -0.25 0.4560660171779821 0.4560660171779821
v -0.3675561720794196 -0.45533703247651747 0.45533703247651747
v -0.3743332131696144 -0.3743332131696144 0.49599927901768626
v -0.3746598480958036 -0.25 0.4979590885748215
v -0.3746598480958036 -0.125 0.4979590885748215
v -0.3746598480958036 0.0 0.4979590885748215
v -0.3746598480958036 0.125 0.4979590885748215
v -0.3746598480958036 0.25 0.4979590885748215
v -0.3743332131696144 0.3743332131696144 0.49599927901768626
v -0.3675561720794196 0.45533703247651747 0.45533703247651747
v -0.4366025403784438 -0.4366025403784438 0.4366025403784438
v -0.45533703247651747 -0.3675561720794196 0.45533703247651747
v -0.4560660171779821 -0.25 0.4560660171779821
v -0.4560660171779821 -0.125 0.4560660171779821
v -0.4560660171779821 0.0 0.4560660171779821
v -0.4560660171779821 0.125 0.4560660171779821
v -0.4560660171779821 0.25 0.4560660171779821
v -0.45533703247651747 0.3675561720794196 0.45533703247651747
v -0.4366025403784438 0.4366025403784438 0.4366025403784438
v -0.4366025403784438 -0.4366025403784438 -0.4366025403784438
v -0.45533703247651747 -0.3675561720794196 -0.45533703247651747
v -0.4560660171779821 -0.25 -0.4560660171779821
v -0.4560660171779821 -0.125 -0.4560660171779821
v -0.4560660171779821 0.0 -0.4560660171779821
v -0.4560660171779821 0.125 -0.4560660171779821
v -0.4560660171779821 0.25 -0.4560660171779821
v -0.45533703247651747 0.3675561720794196 -0.45533703247651747
v -0.4366025403784438 0.4366025403784438 -0.4366025403784438
v -0.3675561720794196 -0.45533703247651747 -0.45533703247651747
v -0.3743332131696144 -0.3743332131696144 -0.49599927901768626
v -0.3746598480958036 -0.25 -0.4979590885748215
v -0.3746598480958036 -0.125 -0.4979590885748215
v -0.3746598480958036 0.0 -0.4979590885748215
v -0.3746598480958036 0.125 -0.4979590885748215
v -0.3746598480958036 0.25 -0.4979590885748215
v -0.3743332131696144 0.3743332131696144 -0.49599927901768626
v -0.3675561720794196 0.45533703247651747 -0.45533703247651747
v -0.25 -0.4560660171779821 -0.4560660171779821
v -0.25 -0.3746598480958036 -0.4979590885748215
v -0.25 -0.25 -0.5
v -0.25 -0.125 -0.5
v -0.25 0.0 -0.5
v -0.25 0.125 -0.5
v -0.25 0.25 -0.5
v -0.25 0.3746598480958036 -0.4979590885748215
v -0.25 0.4560660171779821 -0.4560660171779821
v -0.125 -0.4560660171779821 -0.4560660171779821
v -0.125 -0.3746598480958036 -0.4979590885748215
v -0.125 -0.25 -0.5
v -0.125 -0.125 -0.5
v -0.125 0.0 -0.5
v -0.125 0.125 -0.5
v -0.125 0.25 -0.5
v -0.125 0.3746598480958036 -0.4979590885748215
v -0.125 0.4560660171779821 -0.4560660171779821
v 0.0 -0.4560660171779821 -0.4560660171779821
v 0.0 -0.3746598480958036 -0.4979590885748215
v 0.0 -0.25 -0.5
v 0.0 -0.125 -0.5
v 0.0 0.0 -0.5
v 0.0 0.125 -0.5
v 0.0 0.25 -0.5
v 0.0 0.3746598480958036 -0.4979590885748215
v 0.0 0.4560660171779821 -0.4560660171779821
v 0.125 -0.4560660171779821 -0.4560660171779821
v 0.125 -0.3746598480958036 -0.4979590885748215
v 0.125 -0.25 -0.5
v 0.125 -0.125 -0.5
v 0.125 0.0 -0.5
v 0.125 0.125 -0.5
v 0.125 0.25 -0.5
v 0.125 0.3746598480958036 -0.4979590885748215
v 0.125 0.4560660171779821 -0.4560660171779821
v 0.25 -0.4560660171779821 -0.4560660171779821
v 0.25 -0.3746598480958036 -0.4979590885748215
v 0.25 -0.25 -0.5
v 0.25 -0.125 -0.5
v 0.25 0.0 -0.5
v 0.25 0.125 -0.5
v 0.25 0.25 -0.5
v 0.25 0.3746598480958036 -0.4979590885748215
v 0.25 0.4560660171779821 -0.4560660171779821
v 0.3675561720794196 -0.45533703247651747 -0.45533703247651747
v 0.3743332131696144 -0.3743332131696144 -0.49599927901768626
v 0.3746598480958036 -0.25 -0.4979590885748215
v 0.3746598480958036 -0.125 -0.4979590885748215
v 0.3746598480958036 0.0 -0.4979590885748215
v 0.3746598480958036 0.125 -0.4979590885748215
v 0.3746598480958036 0.25 -0.4979590885748215
v 0.3743332131696144 0.3743332131696144 -0.49599927901768626
v 0.3675561720794196 0.45533703247651747 -0.45533703247651747
v 0.4366025403784438 -0.4366025403784438 -0.4366025403784438
v 0.45533703247651747 -0.3675561720794196 -0.45533703247651747
v 0.4560660171779821 -0.25 -0.4560660171779821
v 0.4560660171779821 -0.125 -0.4560660171779821
v 0.4560660171779821 0.0 -0.4560660171779821
v 0.4560660171779821 0.125 -0.4560660171779821
v 0.4560660171779821 0.25 -0.4560660171779821
v 0.45533703247651747 0.3675561720794196 -0.45533703247651747
v 0.4366025403784438 0.4366025403784438 -0.4366025403784438
vn 0.5773502691896257 -0.5773502691896257 -0.5773502691896257
vn 0.7022468831767834 -0.11704114719613065 -0.7022468831767834
vn 0.7071067811865476 0.0 -0.7071067811865476
vn 0.7071067811865476 0.0 -0.7071067811865476
vn 0.7071067811865476 0.0 -0.7071067811865476
vn 0.7071067811865476 0.0 -0.7071067811865476
vn 0.7071067811865476 0.0 -0.7071067811865476
vn 0.7022468831767834 0.11704114719613065 -0.7022468831767834
vn 0.5773502691896257 0.5773502691896257 -0.5773502691896257
vn 0.7022468831767834 -0.7022468831767834 -0.11704114719613065
vn 0.9733285267845752 -0.16222142113076266 -0.16222142113076266
vn 0.9863939238321437 0.0 -0.16439898730535743
vn 0.9863939238321437 0.0 -0.16439898730535743
vn 0.9863939238321437 0.0 -0.16439898730535743
vn 0.9863939238321437 0.0 -0.16439898730535743
vn 0.9863939238321437 0.0 -0.16439898730535743
vn 0.9733285267845752 0.16222142113076266 -0.16222142113076266
vn 0.7022468831767834 0.7022468831767834 -0.11704114719613065
vn 0.7071067811865476 -0.7071067811865476 0.0
vn 0.9863939238321437 -0.16439898730535743 0.0
vn 1.0 0.0 0.0
vn 1.0 0.0 0.0
vn 1.0 0.0 0.0
vn 1.0 0.0 0.0
vn 1.0 0.0 0.0
vn 0.9863939238321437 0.16439898730535743 0.0
vn 0.7071067811865476 0.7071067811865476 0.0
vn 0.7071067811865476 -0.7071067811865476 0.0
vn 0.9863939238321437 -0.16439898730535743 0.0
vn 1.0 0.0 0.0
vn 1.0 0.0 0.0
vn 1.0 0.0 0.0
vn 1.0 0.0 0.0
vn 1.0 0.0 0.0
vn 0.9863939238321437 0.16439898730535743 0.0
vn 0.7071067811865476 0.7071067811865476 0.0
vn 0.7071067811865476 -0.7071067811865476 0.0
vn 0.9863939238321437 -0.16439898730535743 0.0
vn 1.0 0.0 0.0
vn 1.0 0.0 0.0
vn 1.0 0.0 0.0
vn 1.0 0.0 0.0
vn 1.0 0.0 0.0
vn 0.9863939238321437 0.16439898730535743 0.0
vn 0.7071067811865476 0.7071067811865476 0.0
vn 0.7071067811865476 -0.7071067811865476 0.0
vn 0.9863939238321437 -0.16439898730535743 0.0
vn 1.0 0.0 0.0
vn 1.0 0.0 0.0
vn 1.0 0.0 0.0
vn 1.0 0.0 0.0
vn 1.0 0.0 0.0
vn 0.9863939238321437 0.16439898730535743 0.0
vn 0.7071067811865476 0.7071067811865476 0.0
vn 0.7071067811865476 -0.7071067811865476 0.0
vn 0.9863939238321437 -0.16439898730535743 0.0
vn 1.0 0.0 0.0
vn 1.0 0.0 0.0
vn 1.0 0.0 0.0
vn 1.0 0.0 0.0
vn 1.0 0.0 0.0
vn 0.9863939238321437 0.16439898730535743 0.0
vn 0.7071067811865476 0.7071067811865476 0.0
vn 0.7022468831767834 -0.7022468831767834 0.11704114719613065
vn 0.9733285267845752 -0.16222142113076266 0.16222142113076266
vn 0.9863939238321437 0.0 0.16439898730535743
vn 0.9863939238321437 0.0 0.16439898730535743
vn 0.9863939238321437 0.0 0.16439898730535743
vn 0.9863939238321437 0.0 0.16439898730535743
vn 0.9863939238321437 0.0 0.16439898730535743
vn 0.9733285267845752 0.16222142113076266 0.16222142113076266
vn 0.7022468831767834 0.7022468831767834 0.11704114719613065
vn 0.5773502691896257 -0.5773502691896257 0.5773502691896257
vn 0.7022468831767834 -0.11704114719613065 0.7022468831767834
vn 0.7071067811865476 0.0 0.7071067811865476
vn 0.7071067811865476 0.0 0.7071067811865476
vn 0.7071067811865476 0.0 0.7071067811865476
vn 0.7071067811865476 0.0 0.7071067811865476
vn 0.7071067811865476 0.0 0.7071067811865476
vn 0.7022468831767834 0.11704114719613065 0.7022468831767834
vn 0.5773502691896257 0.5773502691896257 0.5773502691896257
vn -0.5773502691896257 -0.5773502691896257 0.5773502691896257
vn -0.7022468831767834 -0.11704114719613065 0.7022468831767834
vn -0.7071067811865476 0.0 0.7071067811865476
vn -0.7071067811865476 0.0 0.7071067811865476
vn -0.7071067811865476 0.0 0.7071067811865476
vn -0.7071067811865476 0.0 0.7071067811865476
vn -0.7071067811865476 0.0 0.7071067811865476
vn -0.7022468831767834 0.11704114719613065 0.7022468831767834
vn -0.5773502691896257 0.5773502691896257 0.5773502691896257
vn -0.7022468831767834 -0.7022468831767834 0.11704114719613065
vn -0.9733285267845752 -0.16222142113076266 0.16222142113076266
vn -0.9863939238321437 0.0 0.16439898730535743
vn -0.9863939238321437 0.0 0.16439898730535743
vn -0.9863939238321437 0.0 0.16439898730535743
vn -0.9863939238321437 0.0 0.16439898730535743
vn -0.9863939238321437 0.0 0.16439898730535743
vn -0.9733285267845752 0.16222142113076266 0.16222142113076266
vn -0.7022468831767834 0.7022468831767834 0.11704114719613065
vn -0.7071067811865476 -0.7071067811865476 0.0
vn -0.9863939238321437 -0.16439898730535743 0.0
vn -1.0 0.0 0.0
vn -1.0 0.0 0.0
vn -1.0 0.0 0.0
vn -1.0 0.0 0.0
vn -1.0 0.0 0.0
vn -0.9863939238321437 0.16439898730535743 0.0
vn -0.7071067811865476 0.7071067811865476 0.0
vn -0.7071067811865476 -0.7071067811865476 0.0
vn -0.9863939238321437 -0.16439898730535743 0.0
vn -1.0 0.0 0.0
vn -1.0 0.0 0.0
vn -1.0 0.0 0.0
vn -1.0 0.0 0.0
vn -1.0 0.0 0.0
vn -0.9863939238321437 0.16439898730535743 0.0
vn -0.7071067811865476 0.7071067811865476 0.0
vn -0.7071067811865476 -0.7071067811865476 0.0
vn -0.9863939238321437 -0.16439898730535743 0.0
vn -1.0 0.0 0.0
vn -1.0 0.0 0.0
vn -1.0 0.0 0.0
vn -1.0 0.0 0.0
vn -1.0 0.0 0.0
vn -0.9863939238321437 0.16439898730535743 0.0
vn -0.7071067811865476 0.7071067811865476 0.0
vn -0.7071067811865476 -0.7071067811865476 0.0
vn -0.9863939238321437 -0.16439898730535743 0.0
vn -1.0 0.0 0.0
vn -1.0 0.0 0.0
vn -1.0 0.0 0.0
vn -1.0 0.0 0.0
vn -1.0 0.0 0.0
vn -0.9863939238321437 0.16439898730535743 0.0
vn -0.7071067811865476 0.7071067811865476 0.0
vn -0.7071067811865476 -0.7071067811865476 0.0
vn -0.9863939238321437 -0.16439898730535743 0.0
vn -1.0 0.0 0.0
vn -1.0 0.0 0.0
vn -1.0 0.0 0.0
vn -1.0 0.0 0.0
vn -1.0 0.0 0.0
vn -0.9863939238321437 0.16439898730535743 0.0
vn -0.7071067811865476 0.7071067811865476 0.0
vn -0.7022468831767834 -0.7022468831767834 -0.11704114719613065
vn -0.9733285267845752 -0.16222142113076266 -0.16222142113076266
vn -0.9863939238321437 0.0 -0.16439898730535743
vn -0.9863939238321437 0.0 -0.16439898730535743
vn -0.9863939238321437 0.0 -0.16439898730535743
vn -0.9863939238321437 0.0 -0.16439898730535743
vn -0.9863939238321437 0.0 -0.16439898730535743
vn -0.9733285267845752 0.16222142113076266 -0.16222142113076266
vn -0.7022468831767834 0.7022468831767834 -0.11704114719613065
vn -0.5773502691896257 -0.5773502691896257 -0.5773502691896257
vn -0.7022468831767834 -0.11704114719613065 -0.7022468831767834
vn -0.7071067811865476 0.0 -0.7071067811865476
vn -0.7071067811865476 0.0 -0.7071067811865476
vn -0.7071067811865476 0.0 -0.7071067811865476
vn -0.7071067811865476 0.0 -0.7071067811865476
vn -0.7071067811865476 0.0 -0.7071067811865476
vn -0.7022468831767834 0.11704114719613065 -0.7022468831767834
vn -0.5773502691896257 0.5773502691896257 -0.5773502691896257
vn -0.5773502691896257 0.5773502691896257 0.5773502691896257
vn -0.11704114719613065 0.7022468831767834 0.7022468831767834
vn 0.0 0.7071067811865476 0.7071067811865476
vn 0.0 0.7071067811865476 0.7071067811865476
vn 0.0 0.7071067811865476 0.7071067811865476
vn 0.0 0.7071067811865476 0.7071067811865476
vn 0.0 0.7071067811865476 0.7071067811865476
vn 0.11704114719613065 0.7022468831767834 0.7022468831767834
vn 0.5773502691896257 0.5773502691896257 0.5773502691896257
vn -0.7022468831767834 0.7022468831767834 0.11704114719613065
vn -0.16222142113076266 0.9733285267845752 0.16222142113076266
vn 0.0 0.9863939238321437 0.16439898730535743
vn 0.0 0.9863939238321437 0.16439898730535743
vn 0.0 0.9863939238321437 0.16439898730535743
vn 0.0 0.9863939238321437 0.16439898730535743
vn 0.0 0.9863939238321437 0.16439898730535743
vn 0.16222142113076266 0.9733285267845752 0.16222142113076266
vn 0.7022468831767834 0.7022468831767834 0.11704114719613065
vn -0.7071067811865476 0.7071067811865476 0.0
vn -0.16439898730535743 0.9863939238321437 0.0
vn 0.0 1.0 0.0
vn 0.0 1.0 0.0
vn 0.0 1.0 0.0
vn 0.0 1.0 0.0
vn 0.0 1.0 0.0
vn 0.16439898730535743 0.9863939238321437 0.0
vn 0.7071067811865476 0.7071067811865476 0.0
vn -0.7071067811865476 0.7071067811865476 0.0
vn -0.16439898730535743 0.9863939238321437 0.0
vn 0.0 1.0 0.0
vn 0.0 1.0 0.0
vn 0.0 1.0 0.0
vn 0.0 1.0 0.0
vn 0.0 1.0 0.0
vn 0.16439898730535743 0.9863939238321437 0.0
vn 0.7071067811865476 0.7071067811865476 0.0
vn -0.7071067811865476 0.7071067811865476 0.0
vn -0.16439898730535743 0.9863939238321437 0.0
vn 0.0 1.0 0.0
vn 0.0 1.0 0.0
vn 0.0 1.0 0.0
vn 0.0 1.0 0.0
vn 0.0 1.0 0.0
vn 0.16439898730535743 0.9863939238321437 0.0
vn 0.7071067811865476 0.7071067811865476 0.0
vn -0.7071067811865476 0.7071067811865476 0.0
vn -0.16439898730535743 0.9863939238321437 0.0
vn 0.0 1.0 0.0
vn 0.0 1.0 0.0
vn 0.0 1.0 0.0
vn 0.0 1.0 0.0
vn 0.0 1.0 0.0
vn 0.16439898730535743 0.9863939238321437 0.0
vn 0.7071067811865476 0.7071067811865476 0.0
vn -0.7071067811865476 0.7071067811865476 0.0
vn -0.16439898730535743 0.9863939238321437 0.0
vn 0.0 1.0 0.0
vn 0.0 1.0 0.0
vn 0.0 1.0 0.0
vn 0.0 1.0 0.0
vn 0.0 1.0 0.0
vn 0.16439898730535743 0.9863939238321437 0.0
vn 0.7071067811865476 0.7071067811865476 0.0
vn -0.7022468831767834 0.7022468831767834 -0.11704114719613065
vn -0.16222142113076266 0.9733285267845752 -0.16222142113076266
vn 0.0 0.9863939238321437 -0.16439898730535743
vn 0.0 0.9863939238321437 -0.16439898730535743
vn 0.0 0.9863939238321437 -0.16439898730535743
vn 0.0 0.9863939238321437 -0.16439898730535743
vn 0.0 0.9863939238321437 -0.16439898730535743
vn 0.16222142113076266 0.9733285267845752 -0.16222142113076266
vn 0.7022468831767834 0.7022468831767834 -0.11704114719613065
vn -0.5773502691896257 0.5773502691896257 -0.5773502691896257
vn -0.11704114719613065 0.7022468831767834 -0.7022468831767834
vn 0.0 0.7071067811865476 -0.7071067811865476
vn 0.0 0.7071067811865476 -0.7071067811865476
vn 0.0 0.7071067811865476 -0.7071067811865476
vn 0.0 0.7071067811865476 -0.7071067811865476
vn 0.0 0.7071067811865476 -0.7071067811865476
vn 0.11704114719613065 0.7022468831767834 -0.7022468831767834
vn 0.5773502691896257 0.5773502691896257 -0.5773502691896257
vn -0.5773502691896257 -0.5773502691896257 -0.5773502691896257
vn -0.11704114719613065 -0.7022468831767834 -0.7022468831767834
vn 0.0 -0.7071067811865476 -0.7071067811865476
vn 0.0 -0.7071067811865476 -0.7071067811865476
vn 0.0 -0.7071067811865476 -0.7071067811865476
vn 0.0 -0.7071067811865476 -0.7071067811865476
vn 0.0 -0.7071067811865476 -0.7071067811865476
vn 0.11704114719613065 -0.7022468831767834 -0.7022468831767834
vn 0.5773502691896257 -0.5773502691896257 -0.5773502691896257
vn -0.7022468831767834 -0.7022468831767834 -0.11704114719613065
vn -0.16222142113076266 -0.9733285267845752 -0.16222142113076266
vn 0.0 -0.9863939238321437 -0.16439898730535743
vn 0.0 -0.9863939238321437 -0.16439898730535743
vn 0.0 -0.9863939238321437 -0.16439898730535743
vn 0.0 -0.9863939238321437 -0.16439898730535743
vn 0.0 -0.9863939238321437 -0.16439898730535743
vn 0.16222142113076266 -0.9733285267845752 -0.16222142113076266
vn 0.7022468831767834 -0.7022468831767834 -0.11704114719613065
vn -0.7071067811865476 -0.7071067811865476 0.0
vn -0.16439898730535743 -0.9863939238321437 0.0
vn 0.0 -1.0 0.0
vn 0.0 -1.0 0.0
vn 0.0 -1.0 0.0
vn 0.0 -1.0 0.0
vn 0.0 -1.0 0.0
vn 0.16439898730535743 -0.9863939238321437 0.0
vn 0.7071067811865476 -0.7071067811865476 0.0
vn -0.7071067811865476 -0.7071067811865476 0.0
vn -0.16439898730535743 -0.9863939238321437 0.0
vn 0.0 -1.0 0.0
vn 0.0 -1.0 0.0
vn 0.0 -1.0 0.0
vn 0.0 -1.0 0.0
vn 0.0 -1.0 0.0
vn 0.16439898730535743 -0.9863939238321437 0.0
vn 0.7071067811865476 -0.7071067811865476 0.0
vn -0.7071067811865476 -0.7071067811865476 0.0
vn -0.16439898730535743 -0.9863939238321437 0.0
vn 0.0 -1.0 0.0
vn 0.0 -1.0 0.0
vn 0.0 -1.0 0.0
vn 0.0 -1.0 0.0
vn 0.0 -1.0 0.0
vn 0.16439898730535743 -0.9863939238321437 0.0
vn 0.7071067811865476 -0.7071067811865476 0.0
vn -0.7071067811865476 -0.7071067811865476 0.0
vn -0.16439898730535743 -0.9863939238321437 0.0
vn 0.0 -1.0 0.0
vn 0.0 -1.0 0.0
vn 0.0 -1.0 0.0
vn 0.0 -1.0 0.0
vn 0.0 -1.0 0.0
vn 0.16439898730535743 -0.9863939238321437 0.0
vn 0.7071067811865476 -0.7071067811865476 0.0
vn -0.7071067811865476 -0.7071067811865476 0.0
vn -0.16439898730535743 -0.9863939238321437 0.0
vn 0.0 -1.0 0.0
vn 0.0 -1.0 0.0
vn 0.0 -1.0 0.0
vn 0.0 -1.0 0.0
vn 0.0 -1.0 0.0
vn 0.16439898730535743 -0.9863939238321437 0.0
vn 0.7071067811865476 -0.7071067811865476 0.0
vn -0.7022468831767834 -0.7022468831767834 0.11704114719613065
vn -0.16222142113076266 -0.9733285267845752 0.16222142113076266
vn 0.0 -0.9863939238321437 0.16439898730535743
vn 0.0 -0.9863939238321437 0.16439898730535743
vn 0.0 -0.9863939238321437 0.16439898730535743
vn 0.0 -0.9863939238321437 0.16439898730535743
vn 0.0 -0.9863939238321437 0.16439898730535743
vn 0.16222142113076266 -0.9733285267845752 0.16222142113076266
vn 0.7022468831767834 -0.7022468831767834 0.11704114719613065
vn -0.5773502691896257 -0.5773502691896257 0.5773502691896257
vn -0.11704114719613065 -0.7022468831767834 0.7022468831767834
vn 0.0 -0.7071067811865476 0.7071067811865476
vn 0.0 -0.7071067811865476 0.7071067811865476
vn 0.0 -0.7071067811865476 0.7071067811865476
vn 0.0 -0.7071067811865476 0.7071067811865476
vn 0.0 -0.7071067811865476 0.7071067811865476
vn 0.11704114719613065 -0.7022468831767834 0.7022468831767834
vn 0.5773502691896257 -0.5773502691896257 0.5773502691896257
vn 0.5773502691896257 -0.5773502691896257 0.5773502691896257
vn 0.7022468831767834 -0.11704114719613065 0.7022468831767834
vn 0.7071067811865476 0.0 0.7071067811865476
vn 0.7071067811865476 0.0 0.7071067811865476
vn 0.7071067811865476 0.0 0.7071067811865476
vn 0.7071067811865476 0.0 0.7071067811865476
vn 0.7071067811865476 0.0 0.7071067811865476
vn 0.7022468831767834 0.11704114719613065 0.7022468831767834
vn 0.5773502691896257 0.5773502691896257 0.5773502691896257
vn 0.11704114719613065 -0.7022468831767834 0.7022468831767834
vn 0.16222142113076266 -0.16222142113076266 0.9733285267845752
vn 0.16439898730535743 0.0 0.9863939238321437
vn 0.16439898730535743 0.0 0.9863939238321437
vn 0.16439898730535743 0.0 0.9863939238321437
vn 0.16439898730535743 0.0 0.9863939238321437
vn 0.16439898730535743 0.0 0.9863939238321437
vn 0.16222142113076266 0.16222142113076266 0.9733285267845752
vn 0.11704114719613065 0.7022468831767834 0.7022468831767834
vn 0.0 -0.7071067811865476 0.7071067811865476
vn 0.0 -0.16439898730535743 0.9863939238321437
vn 0.0 0.0 1.0
vn 0.0 0.0 1.0
vn 0.0 0.0 1.0
vn 0.0 0.0 1.0
vn 0.0 0.0 1.0
vn 0.0 0.16439898730535743 0.9863939238321437
vn 0.0 0.7071067811865476 0.7071067811865476
vn 0.0 -0.7071067811865476 0.7071067811865476
vn 0.0 -0.16439898730535743 0.9863939238321437
vn 0.0 0.0 1.0
vn 0.0 0.0 1.0
vn 0.0 0.0 1.0
vn 0.0 0.0 1.0
vn 0.0 0.0 1.0
vn 0.0 0.16439898730535743 0.9863939238321437
vn 0.0 0.7071067811865476 0.7071067811865476
vn 0.0 -0.7071067811865476 0.7071067811865476
vn 0.0 -0.16439898730535743 0.9863939238321437
vn 0.0 0.0 1.0
vn 0.0 0.0 1.0
vn 0.0 0.0 1.0
vn 0.0 0.0 1.0
vn 0.0 0.0 1.0
vn 0.0 0.16439898730535743 0.9863939238321437
vn 0.0 0.7071067811865476 0.7071067811865476
vn 0.0 -0.7071067811865476 0.7071067811865476
vn 0.0 -0.16439898730535743 0.9863939238321437
vn 0.0 0.0 1.0
vn 0.0 0.0 1.0
vn 0.0 0.0 1.0
vn 0.0 0.0 1.0
vn 0.0 0.0 1.0
vn 0.0 0.16439898730535743 0.9863939238321437
vn 0.0 0.7071067811865476 0.7071067811865476
vn 0.0 -0.7071067811865476 0.7071067811865476
vn 0.0 -0.16439898730535743 0.9863939238321437
vn 0.0 0.0 1.0
vn 0.0 0.0 1.0
vn 0.0 0.0 1.0
vn 0.0 0.0 1.0
vn 0.0 0.0 1.0
vn 0.0 0.16439898730535743 0.9863939238321437
vn 0.0 0.7071067811865476 0.7071067811865476
vn -0.11704114719613065 -0.7022468831767834 0.7022468831767834
vn -0.16222142113076266 -0.16222142113076266 0.9733285267845752
vn -0.16439898730535743 0.0 0.9863939238321437
vn -0.16439898730535743 0.0 0.9863939238321437
vn -0.16439898730535743 0.0 0.9863939238321437
vn -0.16439898730535743 0.0 0.9863939238321437
vn -0.16439898730535743 0.0 0.9863939238321437
vn -0.16222142113076266 0.16222142113076266 0.9733285267845752
vn -0.11704114719613065 0.7022468831767834 0.7022468831767834
vn -0.5773502691896257 -0.5773502691896257 0.5773502691896257
vn -0.7022468831767834 -0.11704114719613065 0.7022468831767834
vn -0.7071067811865476 0.0 0.7071067811865476
vn -0.7071067811865476 0.0 0.7071067811865476
vn -0.7071067811865476 0.0 0.7071067811865476
vn -0.7071067811865476 0.0 0.7071067811865476
vn -0.7071067811865476 0.0 0.7071067811865476
vn -0.7022468831767834 0.11704114719613065 0.7022468831767834
vn -0.5773502691896257 0.5773502691896257 0.5773502691896257
vn -0.5773502691896257 -0.5773502691896257 -0.5773502691896257
vn -0.7022468831767834 -0.11704114719613065 -0.7022468831767834
vn -0.7071067811865476 0.0 -0.7071067811865476
vn -0.7071067811865476 0.0 -0.7071067811865476
vn -0.7071067811865476 0.0 -0.7071067811865476
vn -0.7071067811865476 0.0 -0.7071067811865476
vn -0.7071067811865476 0.0 -0.7071067811865476
vn -0.7022468831767834 0.11704114719613065 -0.7022468831767834
vn -0.5773502691896257 0.5773502691896257 -0.5773502691896257
vn -0.11704114719613065 -0.7022468831767834 -0.7022468831767834
vn -0.16222142113076266 -0.16222142113076266 -0.9733285267845752
vn -0.16439898730535743 0.0 -0.9863939238321437
vn -0.16439898730535743 0.0 -0.9863939238321437
vn -0.16439898730535743 0.0 -0.9863939238321437
vn -0.16439898730535743 0.0 -0.9863939238321437
vn -0.16439898730535743 0.0 -0.9863939238321437
vn -0.16222142113076266 0.16222142113076266 -0.9733285267845752
vn -0.11704114719613065 0.7022468831767834 -0.7022468831767834
vn 0.0 -0.7071067811865476 -0.7071067811865476
vn 0.0 -0.16439898730535743 -0.9863939238321437
vn 0.0 0.0 -1.0
vn 0.0 0.0 -1.0
vn 0.0 0.0 -1.0
vn 0.0 0.0 -1.0
vn 0.0 0.0 -1.0
vn 0.0 0.16439898730535743 -0.9863939238321437
vn 0.0 0.7071067811865476 -0.7071067811865476
vn 0.0 -0.7071067811865476 -0.7071067811865476
vn 0.0 -0.16439898730535743 -0.9863939238321437
vn 0.0 0.0 -1.0
vn 0.0 0.0 -1.0
vn 0.0 0.0 -1.0
vn 0.0 0.0 -1.0
vn 0.0 0.0 -1.0
vn 0.0 0.16439898730535743 -0.9863939238321437
vn 0.0 0.7071067811865476 -0.7071067811865476
vn 0.0 -0.7071067811865476 -0.7071067811865476
vn 0.0 -0.16439898730535743 -0.9863939238321437
vn 0.0 0.0 -1.0
vn 0.0 0.0 -1.0
vn 0.0 0.0 -1.0
vn 0.0 0.0 -1.0
vn 0.0 0.0 -1.0
vn 0.0 0.16439898730535743 -0.9863939238321437
vn 0.0 0.7071067811865476 -0.7071067811865476
vn 0.0 -0.7071067811865476 -0.7071067811865476
vn 0.0 -0.16439898730535743 -0.9863939238321437
vn 0.0 0.0 -1.0
vn 0.0 0.0 -1.0
vn 0.0 0.0 -1.0
vn 0.0 0.0 -1.0
vn 0.0 0.0 -1.0
vn 0.0 0.16439898730535743 -0.9863939238321437
vn 0.0 0.7071067811865476 -0.7071067811865476
vn 0.0 -0.7071067811865476 -0.7071067811865476
vn 0.0 -0.16439898730535743 -0.9863939238321437
vn 0.0 0.0 -1.0
vn 0.0 0.0 -1.0
vn 0.0 0.0 -1.0
vn 0.0 0.0 -1.0
vn 0.0 0.0 -1.0
vn 0.0 0.16439898730535743 -0.9863939238321437
vn 0.0 0.7071067811865476 -0.7071067811865476
vn 0.11704114719613065 -0.7022468831767834 -0.7022468831767834
vn 0.16222142113076266 -0.16222142113076266 -0.9733285267845752
vn 0.16439898730535743 0.0 -0.9863939238321437
vn 0.16439898730535743 0.0 -0.9863939238321437
vn 0.16439898730535743 0.0 -0.9863939238321437
vn 0.16439898730535743 0.0 -0.9863939238321437
vn 0.16439898730535743 0.0 -0.9863939238321437
vn 0.16222142113076266 0.16222142113076266 -0.9733285267845752
vn 0.11704114719613065 0.7022468831767834 -0.7022468831767834
vn 0.5773502691896257 -0.5773502691896257 -0.5773502691896257
vn 0.7022468831767834 -0.11704114719613065 -0.7022468831767834
vn 0.7071067811865476 0.0 -0.7071067811865476
vn 0.7071067811865476 0.0 -0.7071067811865476
vn 0.7071067811865476 0.0 -0.7071067811865476
vn 0.7071067811865476 0.0 -0.7071067811865476
vn 0.7071067811865476 0.0 -0.7071067811865476
vn 0.7022468831767834 0.11704114719613065 -0.7022468831767834
vn 0.5773502691896257 0.5773502691896257 -0.5773502691896257
f 1//1 2//2 10//10
f 2//2 11//11 10//10
f 2//2 3//3 11//11
f 3//3 12//12 11//11
f 3//3 4//4 12//12
f 4//4 13//13 12//12
f 4//4 5//5 13//13
f 5//5 14//14 13//13
f 5//5 6//6 14//14
f 6//6 15//15 14//14
f 6//6 7//7 15//15
f 7//7 16//16 15//15
f 7//7 8//8 16//16
f 8//8 17//17 16//16
f 8//8 9//9 17//17
f 9//9 18//18 17//17
f 10//10 11//11 19//19
f 11//11 20//20 19//19
f 11//11 12//12 20//20
f 12//12 21//21 20//20
f 12//12 13//13 21//21
f 13//13 22//22 21//21
f 13//13 14//14 22//22
f 14//14 23//23 22//22
f 14//14 15//15 23//23
f 15//15 24//24 23//23
f 15//15 16//16 24//24
f 16//16 25//25 24//24
f 16//16 17//17 25//25
f 17//17 26//26 25//25
f 17//17 18//18 26//26
f 18//18 27//27 26//26
f 19//19 20//20 28//28
f 20//20 29//29 28//28
f 20//20 21//21 29//29
f 21//21 30//30 29//29
f 21//21 22//22 30//30
f 22//22 31//31 30//30
f 22//22 23//23 31//31
f 23//23 32//32 31//31
f 23//23 24//24 32//32
f 24//24 33//33 32//32
f 24//24 25//25 33//33
f 25//25 34//34 33//33
f 25//25 26//26 34//34
f 26//26 35//35 34//34
f 26//26 27//27 35//35
f 27//27 36//36 35//35
f 28//28 29//29 37//37
f 29//29 38//38 37//37
f 29//29 30//30 38//38
f 30//30 39//39 38//38
f 30//30 31//31 39//39
f 31//31 40//40 39//39
f 31//31 32//32 40//40
f 32//32 41//41 40//40
f 32//32 33//33 41//41
f 33//33 42//42 41//41
f 33//33 34//34 42//42
f 34//34 43//43 42//42
f 34//34 35//35 43//43
f 35//35 44//44 43//43
f 35//35 36//36 44//44
f 36//36 45//45 44//44
f 37//37 38//38 46//46
f 38//38 47//47 46//46
f 38//38 39//39 47//47
f 39//39 48//48 47//47
f 39//39 40//40 48//48
f 40//40 49//49 48//48
f 40//40 41//41 49//49
f 41//41 50//50 49//49
f 41//41 42//42 50//50
f 42//42 51//51 50//50
f 42//42 43//43 51//51
f 43//43 52//52 51//51
f 43//43 44//44 52//52
f 44//44 53//53 52//52
f 44//44 45//45 53//53
f 45//45 54//54 53//53
f 46//46 47//47 55//55
f 47//47 56//56 55//55
f 47//47 48//48 56//56
f 48//48 57//57 56//56
f 48//48 49//49 57//57
f 49//49 58//58 57//57
f 49//49 50//50 58//58
f 50//50 59//59 58//58
f 50//50 51//51 59//59
f 51//51 60//60 59//59
f 51//51 52//52 60//60
f 52//52 61//61 60//60
f 52//52 53//53 61//61
f 53//53 62//62 61//61
f 53//53 54//54 62//62
f 54//54 63//63 62//62
f 55//55 56//56 64//64
f 56//56 65//65 64//64
f 56//56 57//57 65//65
f 57//57 66//66 65//65
f 57//57 58//58 66//66
f 58//58 67//67 66//66
f 58//58 59//59 67//67
f 59//59 68//68 67//67
f 59//59 60//60 68//68
f 60//60 69//69 68//68
f 60//60 61//61 69//69
f 61//61 70//70 69//69
f 61//61 62//62 70//70
f 62//62 71//71 70//70
f 62//62 63//63 71//71
f 63//63 72//72 71//71
f 64//64 65//65 73//73
f 65//65 74//74 73//73
f 65//65 66//66 74//74
f 66//66 75//75 74//74
f 66//66 67//67 75//75
f 67//67 76//76 75//75
f 67//67 68//68 76//76
f 68//68 77//77 76//76
f 68//68 69//69 77//77
f 69//69 78//78 77//77
f 69//69 70//70 78//78
f 70//70 79//79 78//78
f 70//70 71//71 79//79
f 71//71 80//80 79//79
f 71//71 72//72 80//80
f 72//72 81//81 80//80
f 82//82 83//83 91//91
f 83//83 92//92 91//91
f 83//83 84//84 92//92
f 84//84 93//93 92//92
f 84//84 85//85 93//93
f 85//85 94//94 93//93
f 85//85 86//86 94//94
f 86//86 95//95 94//94
f 86//86 87//87 95//95
f 87//87 96//96 95//95
f 87//87 88//88 96//96
f 88//88 97//97 96//96
f 88//88 89//89 97//97
f 89//89 98//98 97//97
f 89//89 90//90 98//98
f 90//90 99//99 98//98
f 91//91 92//92 100//100
f 92//92 101//101 100//100
f 92//92 93//93 101//101
f 93//93 102//102 101//101
f 93//93 94//94 102//102
f 94//94 103//103 102//102
f 94//94 95//95 103//103
f 95//95 104//104 103//103
f 95//95 96//96 104//104
f 96//96 105//105 104//104
f 96//96 97//97 105//105
f 97//97 106//106 105//105
f 97//97 98//98 106//106
f 98//98 107//107 106//106
f 98//98 99//99 107//107
f 99//99 108//108 107//107
f 100//100 101//101 109//109
f 101//101 110//110 109//109
f 101//101 102//102 110//110
f 102//102 111//111 110//110
f 102//102 103//103 111//111
f 103//103 112//112 111//111
f 103//103 104//104 112//112
f 104//104 113//113 112//112
f 104//104 105//105 113//113
f 105//105 114//114 113//113
f 105//105 106//106 114//114
f 106//106 115//115 114//114
f 106//106 107//107 115//115
f 107//107 116//116 115//115
f 107//107 108//108 116//116
f 108//108 117//117 116//116
f 109//109 110//110 118//118
f 110//110 119//119 118//118
f 110//110 111//111 119//119
f 111//111 120//120 119//119
f 111//111 112//112 120//120
f 112//112 121//121 120//120
f 112//112 113//113 121//121
f 113//113 122//122 121//121
f 113//113 114//114 122//122
f 114//114 123//123 122//122
f 114//114 115//115 123//123
f 115//115 124//124 123//123
f 115//115 116//116 124//124
f 116//116 125//125 124//124
f 116//116 117//117 125//125
f 117//117 126//126 125//125
f 118//118 119//119 127//127
f 119//119 128//128 127//127
f 119//119 120//120 128//128
f 120//120 129//129 128//128
f 120//120 121//121 129//129
f 121//121 130//130 129//129
f 121//121 122//122 130//130
f 122//122 131//131 130//130
f 122//122 123//123 131//131
f 123//123 132//132 131//131
f 123//123 124//124 132//132
f 124//124 133//133 132//132
f 124//124 125//125 133//133
f 125//125 134//134 133//133
f 125//125 126//126 134//134
f 126//126 135//135 134//134
f 127//127 128//128 136//136
f 128//128 137//137 136//136
f 128//128 129//129 137//137
f 129//129 138//138 137//137
f 129//129 130//130 138//138
f 130//130 139//139 138//138
f 130//130 131//131 139//139
f 131//131 140//140 139//139
f 131//131 132//132 140//140
f 132//132 141//141 140//140
f 132//132 133//133 141//141
f 133//133 142//142 141//141
f 133//133 134//134 142//142
f 134//134 143//143 142//142
f 134//134 135//135 143//143
f 135//135 144//144 143//143
f 136//136 137//137 145//145
f 137//137 146//146 145//145
f 137//137 138//138 146//146
f 138//138 147//147 146//146
f 138//138 139//139 147//147
f 139//139 148//148 147//147
f 139//139 140//140 148//148
f 140//140 149//149 148//148
f 140//140 141//141 149//149
f 141//141 150//150 149//149
f 141//141 142//142 150//150
f 142//142 151//151 150//150
f 142//142 143//143 151//151
f 143//143 152//152 151//151
f 143//143 144//144 152//152
f 144//144 153//153 152//152
f 145//145 146//146 154//154
f 146//146 155//155 154//154
f 146//146 147//147 155//155
f 147//147 156//156 155//155
f 147//147 148//148 156//156
f 148//148 157//157 156//156
f 148//148 149//149 157//157
f 149//149 158//158 157//157
f 149//149 150//150 158//158
f 150//150 159//159 158//158
f 150//150 151//151 159//159
f 151//151 160//160 159//159
f 151//151 152//152 160//160
f 152//152 161//161 160//160
f 152//152 153//153 161//161
f 153//153 162//162 161//161
f 163//163 164//164 172//172
f 164//164 173//173 172//172
f 164//164 165//165 173//173
f 165//165 174//174 173//173
f 165//165 166//166 174//174
f 166//166 175//175 174//174
f 166//166 167//167 175//175
f 167//167 176//176 175//175
f 167//167 168//168 176//176
f 168//168 177//177 176//176
f 168//168 169//169 177//177
f 169//169 178//178 177//177
f 169//169 170//170 178//178
f 170//170 179//179 178//178
f 170//170 171//171 179//179
f 171//171 180//180 179//179
f 172//172 173//173 181//181
f 173//173 182//182 181//181
f 173//173 174//174 182//182
f 174//174 183//183 182//182
f 174//174 175//175 183//183
f 175//175 184//184 183//183
f 175//175 176//176 184//184
f 176//176 185//185 184//184
f 176//176 177//177 185//185
f 177//177 186//186 185//185
f 177//177 178//178 186//186
f 178//178 187//187 186//186
f 178//178 179//179 187//187
f 179//179 188//188 187//187
f 179//179 180//180 188//188
f 180//180 189//189 188//188
f 181//181 182//182 190//190
f 182//182 191//191 190//190
f 182//182 183//183 191//191
f 183//183 192//192 191//191
f 183//183 184//184 192//192
f 184//184 193//193 192//192
f 184//184 185//185 193//193
f 185//185 194//194 193//193
f 185//185 186//186 194//194
f 186//186 195//195 194//194
f 186//186 187//187 195//195
f 187//187 196//196 195//195
f 187//187 188//188 196//196
f 188//188 197//197 196//196
f 188//188 189//189 197//197
f 189//189 198//198 197//197
f 190//190 191//191 199//199
f 191//191 200//200 199//199
f 191//191 192//192 200//200
f 192//192 201//201 200//200
f 192//192 193//193 201//201
f 193//193 202//202 201//201
f 193//193 194//194 202//202
f 194//194 203//203 202//202
f 194//194 195//195 203//203
f 195//195 204//204 203//203
f 195//195 196//196 204//204
f 196//196 205//205 204//204
f 196//196 197//197 205//205
f 197//197 206//206 205//205
f 197//197 198//198 206//206
f 198//198 207//207 206//206
f 199//199 200//200 208//208
f 200//200 209//209 208//208
f 200//200 201//201 209//209
f 201//201 210//210 209//209
f 201//201 202//202 210//210
f 202//202 211//211 210//210
f 202//202 203//203 211//211
f 203//203 212//212 211//211
f 203//203 204//204 212//212
f 204//204 213//213 212//212
f 204//204 205//205 213//213
f 205//205 214//214 213//213
f 205//205 206//206 214//214
f 206//206 215//215 214//214
f 206//206 207//207 215//215
f 207//207 216//216 215//215
f 208//208 209//209 217//217
f 209//209 218//218 217//217
f 209//209 210//210 218//218
f 210//210 219//219 218//218
f 210//210 211//211 219//219
f 211//211 220//220 219//219
f 211//211 212//212 220//220
f 212//212 221//221 220//220
f 212//212 213//213 221//221
f 213//213 222//222 221//221
f 213//213 214//214 222//222
f 214//214 223//223 222//222
f 214//214 215//215 223//223
f 215//215 224//224 223//223
f 215//215 216//216 224//224
f 216//216 225//225 224//224
f 217//217 218//218 226//226
f 218//218 227//227 226//226
f 218//218 219//219 227//227
f 219//219 228//228 227//227
f 219//219 220//220 228//228
f 220//220 229//229 228//228
f 220//220 221//221 229//229
f 221//221 230//230 229//229
f 221//221 222//222 230//230
f 222//222 231//231 230//230
f 222//222 223//223 231//231
f 223//223 232//232 231//231
f 223//223 224//224 232//232
f 224//224 233//233 232//232
f 224//224 225//225 233//233
f 225//225 234//234 233//233
f 226//226 227//227 235//235
f 227//227 236//236 235//235
f 227//227 228//228 236//236
f 228//228 237//237 236//236
f 228//228 229//229 237//237
f 229//229 238//238 237//237
f 229//229 230//230 238//238
f 230//230 239//239 238//238
f 230//230 231//231 239//239
f 231//231 240//240 239//239
f 231//231 232//232 240//240
f 232//232 241//241 240//240
f 232//232 233//233 241//241
f 233//233 242//242 241//241
f 233//233 234//234 242//242
f 234//234 243//243 242//242
f 244//244 245//245 253//253
f 245//245 254//254 253//253
f 245//245 246//246 254//254
f 246//246 255//255 254//254
f 246//246 247//247 255//255
f 247//247 256//256 255//255
f 247//247 248//248 256//256
f 248//248 257//257 256//256
f 248//248 249//249 257//257
f 249//249 258//258 257//257
f 249//249 250//250 258//258
f 250//250 259//259 258//258
f 250//250 251//251 259//259
f 251//251 260//260 259//259
f 251//251 252//252 260//260
f 252//252 261//261 260//260
f 253//253 254//254 262//262
f 254//254 263//263 262//262
f 254//254 255//255 263//263
f 255//255 264//264 263//263
f 255//255 256//256 264//264
f 256//256 265//265 264//264
f 256//256 257//257 265//265
f 257//257 266//266 265//265
f 257//257 258//258 266//266
f 258//258 267//267 266//266
f 258//258 259//259 267//267
f 259//259 268//268 267//267
f 259//259 260//260 268//268
f 260//260 269//269 268//268
f 260//260 261//261 269//269
f 261//261 270//270 269//269
f 262//262 263//263 271//271
f 263//263 272//272 271//271
f 263//263 264//264 272//272
f 264//264 273//273 272//272
f 264//264 265//265 273//273
f 265//265 274//274 273//273
f 265//265 266//266 274//274
f 266//266 275//275 274//274
f 266//266 267//267 275//275
f 267//267 276//276 275//275
f 267//267 268//268 276//276
f 268//268 277//277 276//276
f 268//268 269//269 277//277
f 269//269 278//278 277//277
f 269//269 270//270 278//278
f 270//270 279//279 278//278
f 271//271 272//272 280//280
f 272//272 281//281 280//280
f 272//272 273//273 281//281
f 273//273 282//282 281//281
f 273//273 274//274 282//282
f 274//274 283//283 282//282
f 274//274 275//275 283//283
f 275//275 284//284 283//283
f 275//275 276//276 284//284
f 276//276 285//285 284//284
f 276//276 277//277 285//285
f 277//277 286//286 285//285
f 277//277 278//278 286//286
f 278//278 287//287 286//286
f 278//278 279//279 287//287
f 279//279 288//288 287//287
f 280//280 281//281 289//289
f 281//281 290//290 289//289
f 281//281 282//282 290//290
f 282//282 291//291 290//290
f 282//282 283//283 291//291
f 283//283 292//292 291//291
f 283//283 284//284 292//292
f 284//284 293//293 292//292
f 284//284 285//285 293//293
f 285//285 294//294 293//293
f 285//285 286//286 294//294
f 286//286 295//295 294//294
f 286//286 287//287 295//295
f 287//287 296//296 295//295
f 287//287 288//288 296//296
f 288//288 297//297 296//296
f 289//289 290//290 298//298
f 290//290 299//299 298//298
f 290//290 291//291 299//299
f 291//291 300//300 299//299
f 291//291 292//292 300//300
f 292//292 301//301 300//300
f 292//292 293//293 301//301
f 293//293 302//302 301//301
f 293//293 294//294 302//302
f 294//294 303//303 302//302
f 294//294 295//295 303//303
f 295//295 304//304 303//303
f 295//295 296//296 304//304
f 296//296 305//305 304//304
f 296//296 297//297 305//305
f 297//297 306//306 305//305
f 298//298 299//299 307//307
f 299//299 308//308 307//307
f 299//299 300//300 308//308
f 300//300 309//309 308//308
f 300//300 301//301 309//309
f 301//301 310//310 309//309
f 301//301 302//302 310//310
f 302//302 311//311 310//310
f 302//302 303//303 311//311
f 303//303 312//312 311//311
f 303//303 304//304 312//312
f 304//304 313//313 312//312
f 304//304 305//305 313//313
f 305//305 314//314 313//313
f 305//305 306//306 314//314
f 306//306 315//315 314//314
f 307//307 308//308 316//316
f 308//308 317//317 316//316
f 308//308 309//309 317//317
f 309//309 318//318 317//317
f 309//309 310//310 318//318
f 310//310 319//319 318//318
f 310//310 311//311 319//319
f 311//311 320//320 319//319
f 311//311 312//312 320//320
f 312//312 321//321 320//320
f 312//312 313//313 321//321
f 313//313 322//322 321//321
f 313//313 314//314 322//322
f 314//314 323//323 322//322
f 314//314 315//315 323//323
f 315//315 324//324 323//323
f 325//325 326//326 334//334
f 326//326 335//335 334//334
f 326//326 327//327 335//335
f 327//327 336//336 335//335
f 327//327 328//328 336//336
f 328//328 337//337 336//336
f 328//328 329//329 337//337
f 329//329 338//338 337//337
f 329//329 330//330 338//338
f 330//330 339//339 338//338
f 330//330 331//331 339//339
f 331//331 340//340 339//339
f 331//331 332//332 340//340
f 332//332 341//341 340//340
f 332//332 333//333 341//341
f 333//333 342//342 341//341
f 334//334 335//335 343//343
f 335//335 344//344 343//343
f 335//335 336//336 344//344
f 336//336 345//345 344//344
f 336//336 337//337 345//345
f 337//337 346//346 345//345
f 337//337 338//338 346//346
f 338//338 347//347 346//346
f 338//338 339//339 347//347
f 339//339 348//348 347//347
f 339//339 340//340 348//348
f 340//340 349//349 348//348
f 340//340 341//341 349//349
f 341//341 350//350 349//349
f 341//341 342//342 350//350
f 342//342 351//351 350//350
f 343//343 344//344 352//352
f 344//344 353//353 352//352
f 344//344 345//345 353//353
f 345//345 354//354 353//353
f 345//345 346//346 354//354
f 346//346 355//355 354//354
f 346//346 347//347 355//355
f 347//347 356//356 355//355
f 347//347 348//348 356//356
f 348//348 357//357 356//356
f 348//348 349//349 357//357
f 349//349 358//358 357//357
f 349//349 350//350 358//358
f 350//350 359//359 358//358
f 350//350 351//351 359//359
f 351//351 360//360 359//359
f 352//352 353//353 361//361
f 353//353 362//362 361//361
f 353//353 354//354 362//362
f 354//354 363//363 362//362
f 354//354 355//355 363//363
f 355//355 364//364 363//363
f 355//355 356//356 364//364
f 356//356 365//365 364//364
f 356//356 357//357 365//365
f 357//357 366//366 365//365
f 357//357 358//358 366//366
f 358//358 367//367 366//366
f 358//358 359//359 367//367
f 359//359 368//368 367//367
f 359//359 360//360 368//368
f 360//360 369//369 368//368
f 361//361 362//362 370//370
f 362//362 371//371 370//370
f 362//362 363//363 371//371
f 363//363 372//372 371//371
f 363//363 364//364 372//372
f 364//364 373//373 372//372
f 364//364 365//365 373//373
f 365//365 374//374 373//373
f 365//365 366//366 374//374
f 366//366 375//375 374//374
f 366//366 367//367 375//375
f 367//367 376//376 375//375
f 367//367 368//368 376//376
f 368//368 377//377 376//376
f 368//368 369//369 377//377
f 369//369 378//378 377//377
f 370//370 371//371 379//379
f 371//371 380//380 379//379
f 371//371 372//372 380//380
f 372//372 381//381 380//380
f 372//372 373//373 381//381
f 373//373 382//382 381//381
f 373//373 374//374 382//382
f 374//374 383//383 382//382
f 374//374 375//375 383//383
f 375//375 384//384 383//383
f 375//375 376//376 384//384
f 376//376 385//385 384//384
f 376//376 377//377 385//385
f 377//377 386//386 385//385
f 377//377 378//378 386//386
f 378//378 387//387 386//386
f 379//379 380//380 388//388
f 380//380 389//389 388//388
f 380//380 381//381 389//389
f 381//381 390//390 389//389
f 381//381 382//382 390//390
f 382//382 391//391 390//390
f 382//382 383//383 391//391
f 383//383 392//392 391//391
f 383//383 384//384 392//392
f 384//384 393//393 392//392
f 384//384 385//385 393//393
f 385//385 394//394 393//393
f 385//385 386//386 394//394
f 386//386 395//395 394//394
f 386//386 387//387 395//395
f 387//387 396//396 395//395
f 388//388 389//389 397//397
f 389//389 398//398 397//397
f 389//389 390//390 398//398
f 390//390 399//399 398//398
f 390//390 391//391 399//399
f 391//391 400//400 399//399
f 391//391 392//392 400//400
f 392//392 401//401 400//400
f 392//392 393//393 401//401
f 393//393 402//402 401//401
f 393//393 394//394 402//402
f 394//394 403//403 402//402
f 394//394 395//395 403//403
f 395//395 404//404 403//403
f 395//395 396//396 404//404
f 396//396 405//405 404//404
f 406//406 407//407 415//415
f 407//407 416//416 415//415
f 407//407 408//408 416//416
f 408//408 417//417 416//416
f 408//408 409//409 417//417
f 409//409 418//418 417//417
f 409//409 410//410 418//418
f 410//410 419//419 418//418
f 410//410 411//411 419//419
f 411//411 420//420 419//419
f 411//411 412//412 420//420
f 412//412 421//421 420//420
f 412//412 413//413 421//421
f 413//413 422//422 421//421
f 413//413 414//414 422//422
f 414//414 423//423 422//422
f 415//415 416//416 424//424
f 416//416 425//425 424//424
f 416//416 417//417 425//425
f 417//417 426//426 425//425
f 417//417 418//418 426//426
f 418//418 427//427 426//426
f 418//418 419//419 427//427
f 419//419 428//428 427//427
f 419//419 420//420 428//428
f 420//420 429//429 428//428
f 420//420 421//421 429//429
f 421//421 430//430 429//429
f 421//421 422//422 430//430
f 422//422 431//431 430//430
f 422//422 423//423 431//431
f 423//423 432//432 431//431
f 424//424 425//425 433//433
f 425//425 434//434 433//433
f 425//425 426//426 434//434
f 426//426 435//435 434//434
f 426//426 427//427 435//435
f 427//427 436//436 435//435
f 427//427 428//428 436//436
f 428//428 437//437 436//436
f 428//428 429//429 437//437
f 429//429 438//438 437//437
f 429//429 430//430 438//438
f 430//430 439//439 438//438
f 430//430 431//431 439//439
f 431//431 440//440 439//439
f 431//431 432//432 440//440
f 432//432 441//441 440//440
f 433//433 434//434 442//442
f 434//434 443//443 442//442
f 434//434 435//435 443//443
f 435//435 444//444 443//443
f 435//435 436//436 444//444
f 436//436 445//445 444//444
f 436//436 437//437 445//445
f 437//437 446//446 445//445
f 437//437 438//438 446//446
f 438//438 447//447 446//446
f 438//438 439//439 447//447
f 439//439 448//448 447//447
f 439//439 440//440 448//448
f 440//440 449//449 448//448
f 440//440 441//441 449//449
f 441//441 450//450 449//449
f 442//442 443//443 451//451
f 443//443 452//452 451//451
f 443//443 444//444 452//452
f 444//444 453//453 452//452
f 444//444 445//445 453//453
f 445//445 454//454 453//453
f 445//445 446//446 454//454
f 446//446 455//455 454//454
f 446//446 447//447 455//455
f 447//447 456//456 455//455
f 447//447 448//448 456//456
f 448//448 457//457 456//456
f 448//448 449//449 457//457
f 449//449 458//458 457//457
f 449//449 450//450 458//458
f 450//450 459//459 458//458
f 451//451 452//452 460//460
f 452//452 461//461 460//460
f 452//452 453//453 461//461
f 453//453 462//462 461//461
f 453//453 454//454 462//462
f 454//454 463//463 462//462
f 454//454 455//455 463//463
f 455//455 464//464 463//463
f 455//455 456//456 464//464
f 456//456 465//465 464//464
f 456//456 457//457 465//465
f 457//457 466//466 465//465
f 457//457 458//458 466//466
f 458//458 467//467 466//466
f 458//458 459//459 467//467
f 459//459 468//468 467//467
f 460//460 461//461 469//469
f 461//461 470//470 469//469
f 461//461 462//462 470//470
f 462//462 471//471 470//470
f 462//462 463//463 471//471
f 463//463 472//472 471//471
f 463//463 464//464 472//472
f 464//464 473//473 472//472
f 464//464 465//465 473//473
f 465//465 474//474 473//473
f 465//465 466//466 474//474
f 466//466 475//475 474//474
f 466//466 467//467 475//475
f 467//467 476//476 475//475
f 467//467 468//468 476//476
f 468//468 477//477 476//476
f 469//469 470//470 478//478
f 470//470 479//479 478//478
f 470//470 471//471 479//479
f 471//471 480//480 479//479
f 471//471 472//472 480//480
f 472//472 481//481 480//480
f 472//472 473//473 481//481
f 473//473 482//482 481//481
f 473//473 474//474 482//482
f 474//474 483//483 482//482
f 474//474 475//475 483//483
f 475//475 484//484 483//483
f 475//475 476//476 484//484
f 476//476 485//485 484//484
f 476//476 477//477 485//485
f 477//477 486//486 485//485
